<?xml version="1.0" standalone="no"?>
<!DOCTYPE svg PUBLIC "-//W3C//DTD SVG 20010904//EN"
 "http://www.w3.org/TR/2001/REC-SVG-20010904/DTD/svg10.dtd">
<svg version="1.0" xmlns="http://www.w3.org/2000/svg"
 width="400.000000pt" height="128.000000pt" viewBox="0 0 300.000000 128.000000"
 preserveAspectRatio="xMidYMid meet">
<metadata>
Created by potrace 1.10, written by Peter Selinger 2001-2011
</metadata>
<g transform="translate(0.000000,128.000000) scale(0.100000,-0.100000)"
fill="#000000" stroke="none">
<path d="M865 890 c-10 -22 -23 -44 -30 -50 -12 -10 -14 -78 -2 -98 5 -7 32
-12 73 -12 42 0 63 4 59 10 -4 6 -10 8 -15 5 -5 -3 -11 -1 -15 5 -4 6 5 10 19
10 14 0 26 5 26 10 0 6 -14 10 -32 10 -39 0 -26 17 17 23 l30 4 -32 2 c-44 2
-42 21 2 21 19 0 35 5 35 10 0 17 -24 21 -68 11 -49 -10 -63 1 -37 29 17 19
15 50 -3 50 -5 0 -17 -18 -27 -40z m28 -64 c21 -16 22 -49 2 -66 -16 -13 -50
-6 -40 9 3 5 1 12 -4 16 -7 4 -6 15 1 30 13 28 16 29 41 11z"/>
<path d="M770 795 c0 -55 3 -65 18 -65 15 0 17 8 14 65 -3 48 -7 65 -18 65
-11 0 -14 -16 -14 -65z"/>
<path d="M530 795 l0 -55 38 0 c20 0 52 -9 70 -20 32 -20 32 -20 32 0 0 11 7
20 15 20 8 0 15 8 16 18 1 9 2 33 2 52 l2 35 -87 3 -88 3 0 -56z m148 24 c-2
-7 -27 -11 -61 -11 -73 1 -69 0 -62 12 9 14 128 13 123 -1z m2 -49 c0 -6 -28
-10 -65 -10 -37 0 -65 4 -65 10 0 6 28 10 65 10 37 0 65 -4 65 -10z"/>
<path d="M1490 708 c0 -37 0 -71 0 -75 0 -5 8 -8 18 -8 12 0 16 7 14 23 -5 32
40 30 62 -3 17 -26 46 -34 46 -12 0 7 -5 18 -12 25 -9 9 -9 15 0 24 7 7 12 27
12 45 0 40 -27 54 -96 51 l-44 -1 0 -69z m106 21 c9 -15 -16 -30 -46 -27 -14
2 -26 10 -28 21 -3 13 4 17 32 17 19 0 38 -5 42 -11z"/>
<path d="M1110 695 c0 -69 2 -75 21 -75 18 0 20 4 13 45 -7 52 4 58 28 15 22
-38 33 -38 53 0 22 42 31 37 27 -15 -4 -40 -2 -45 17 -45 19 0 21 5 21 75 0
71 -1 75 -23 75 -15 0 -28 -11 -41 -35 -11 -19 -23 -35 -27 -35 -4 0 -17 16
-29 35 -13 20 -30 35 -41 35 -17 0 -19 -8 -19 -75z"/>
<path d="M1320 695 l0 -75 70 0 c63 0 70 2 70 20 0 17 -7 20 -49 20 -28 0 -53
5 -56 10 -4 6 12 10 40 10 39 0 46 3 43 18 -3 12 -13 17 -38 17 -57 0 -51 20
8 23 37 2 52 7 52 18 0 11 -16 14 -70 14 l-70 0 0 -75z"/>
<path d="M1687 703 c-17 -38 -33 -71 -35 -75 -2 -5 6 -8 17 -8 12 0 24 7 27
15 8 21 73 20 89 -1 6 -9 18 -15 27 -13 13 3 10 16 -18 77 -44 97 -63 98 -107
5z m67 11 c10 -26 7 -34 -14 -34 -11 0 -20 4 -20 9 0 17 12 41 20 41 4 0 11
-7 14 -16z"/>
<path d="M1875 703 c-16 -36 -31 -70 -33 -75 -2 -4 5 -8 16 -8 11 0 22 7 26
15 3 10 19 15 45 15 25 0 41 -5 45 -15 6 -16 36 -21 36 -6 0 4 -14 38 -30 75
-24 53 -35 66 -53 66 -17 0 -28 -14 -52 -67z m65 18 c0 -5 3 -16 6 -25 4 -12
0 -16 -15 -16 -20 0 -30 28 -14 43 9 10 23 9 23 -2z"/>
<path d="M2037 698 c2 -63 4 -73 20 -73 15 0 18 7 15 45 l-3 45 29 -33 28 -34
27 34 26 33 1 -48 c0 -40 3 -48 16 -45 14 2 17 17 18 76 1 67 -1 72 -20 72
-14 0 -27 -12 -40 -35 -10 -19 -22 -35 -26 -35 -4 0 -18 16 -30 35 -14 21 -31
35 -43 35 -19 0 -21 -5 -18 -72z"/>
<path d="M2250 695 c0 -68 2 -75 20 -75 18 0 20 7 20 75 0 68 -2 75 -20 75
-18 0 -20 -7 -20 -75z"/>
<path d="M712 730 c-13 -11 -21 -24 -17 -30 14 -22 -7 -29 -40 -13 -19 9 -37
14 -40 11 -4 -3 4 -38 16 -78 l22 -72 66 6 c41 5 69 12 74 22 4 7 16 14 26 14
28 0 30 9 16 51 -15 40 -15 42 -15 59 0 6 -16 10 -35 10 -28 0 -35 4 -35 20 0
25 -8 25 -38 0z m57 -52 c11 -11 12 -10 6 0 -6 11 -3 12 13 3 11 -6 22 -20 25
-31 3 -13 1 -18 -6 -13 -6 4 -8 0 -4 -9 4 -11 -3 -19 -21 -27 -31 -12 -105
-32 -107 -28 0 1 -6 13 -12 27 -24 53 -23 59 2 54 17 -3 27 2 35 16 12 22 49
26 69 8z"/>
<path d="M859 653 c13 -46 22 -59 39 -61 22 -3 29 8 15 22 -5 4 -8 11 -9 14 0
4 -6 20 -12 35 -7 16 -12 33 -12 38 0 5 -9 9 -19 9 -18 0 -18 -2 -2 -57z"/>
<path d="M905 695 c16 -51 15 -50 31 -27 18 25 11 42 -16 42 -13 0 -18 -5 -15
-15z"/>
<path d="M567 678 c-15 -12 -15 -18 0 -76 15 -61 34 -85 53 -66 9 9 -16 131
-29 147 -4 4 -15 1 -24 -5z"/>
<path d="M863 573 l-53 -4 0 -60 0 -59 94 0 94 0 4 58 c3 36 1 60 -6 64 -11 8
-33 8 -133 1z m97 -28 c15 -18 -15 -72 -44 -81 -29 -10 -80 49 -66 76 12 23
92 26 110 5z"/>
<path d="M870 531 c0 -4 7 -17 16 -29 15 -22 17 -22 35 -6 29 26 23 42 -16 42
-19 0 -35 -3 -35 -7z"/>
<path d="M1133 558 c-3 -5 -3 -12 0 -14 3 -3 299 -5 658 -5 527 0 654 3 654
13 0 10 -127 13 -653 14 -370 0 -655 -3 -659 -8z"/>
<path d="M640 521 c0 -5 12 -29 26 -54 17 -31 30 -44 40 -40 17 6 18 2 -6 57
-14 33 -25 46 -40 46 -11 0 -20 -4 -20 -9z"/>
</g>
</svg>
